REM DIRINDEX 1\2,1\3,1\4,1\5,1\6
REM DIRNAME folder01,folder02,folder03,folder04,folder05,folder06
TITLE ""
FILE "Disc1Track62.mp3" MP3
  TRACK 01 AUDIO
    TITLE "3:cjc030_01547"
    INDEX 01 00:00:00
  TRACK 02 AUDIO
    TITLE "0:"
    INDEX 01 00:01:19
  TRACK 03 AUDIO
    TITLE "4:cjc030_01548"
    INDEX 01 00:01:28
  TRACK 04 AUDIO
    TITLE "0:"
    INDEX 01 00:03:31
  TRACK 05 AUDIO
    TITLE "5:cjc030_01549"
    INDEX 01 00:03:39
  TRACK 06 AUDIO
    TITLE "0:"
    INDEX 01 00:04:62
  TRACK 07 AUDIO
    TITLE "3:cjc030_01550"
    INDEX 01 00:05:42
  TRACK 08 AUDIO
    TITLE "0:"
    INDEX 01 00:06:65
  TRACK 09 AUDIO
    TITLE "4:cjc030_01551"
    INDEX 01 00:06:71
  TRACK 10 AUDIO
    TITLE "0:"
    INDEX 01 00:08:58
  TRACK 11 AUDIO
    TITLE "5:cjc030_01552"
    INDEX 01 00:08:66
  TRACK 12 AUDIO
    TITLE "0:"
    INDEX 01 00:10:14
  TRACK 13 AUDIO
    TITLE "6:cjc030_01553"
    INDEX 01 00:10:27
  TRACK 14 AUDIO
    TITLE "0:"
    INDEX 01 00:15:58
  TRACK 15 AUDIO
    TITLE "3:cjc030_01554"
    INDEX 01 00:16:32
  TRACK 16 AUDIO
    TITLE "0:"
    INDEX 01 00:17:57
  TRACK 17 AUDIO
    TITLE "4:cjc030_01555"
    INDEX 01 00:17:65
  TRACK 18 AUDIO
    TITLE "0:"
    INDEX 01 00:18:70
  TRACK 19 AUDIO
    TITLE "5:cjc030_01556"
    INDEX 01 00:19:03
  TRACK 20 AUDIO
    TITLE "0:"
    INDEX 01 00:20:28
  TRACK 21 AUDIO
    TITLE "6:cjc030_01557"
    INDEX 01 00:20:39
  TRACK 22 AUDIO
    TITLE "0:"
    INDEX 01 00:26:20
  TRACK 23 AUDIO
    TITLE "3:cjc030_01558"
    INDEX 01 00:26:67
  TRACK 24 AUDIO
    TITLE "0:"
    INDEX 01 00:28:19
  TRACK 25 AUDIO
    TITLE "4:cjc030_01559"
    INDEX 01 00:28:29
  TRACK 26 AUDIO
    TITLE "0:"
    INDEX 01 00:30:59
  TRACK 27 AUDIO
    TITLE "5:cjc030_01560"
    INDEX 01 00:30:67
  TRACK 28 AUDIO
    TITLE "0:"
    INDEX 01 00:32:21
  TRACK 29 AUDIO
    TITLE "3:cjc030_01561"
    INDEX 01 00:33:03
  TRACK 30 AUDIO
    TITLE "0:"
    INDEX 01 00:34:16
  TRACK 31 AUDIO
    TITLE "4:cjc030_01562"
    INDEX 01 00:34:26
  TRACK 32 AUDIO
    TITLE "0:"
    INDEX 01 00:35:66
  TRACK 33 AUDIO
    TITLE "5:cjc030_01563"
    INDEX 01 00:35:74
  TRACK 34 AUDIO
    TITLE "0:"
    INDEX 01 00:37:14
  TRACK 35 AUDIO
    TITLE "3:cjc030_01564"
    INDEX 01 00:37:71
  TRACK 36 AUDIO
    TITLE "0:"
    INDEX 01 00:39:03
  TRACK 37 AUDIO
    TITLE "4:cjc030_01565"
    INDEX 01 00:39:13
  TRACK 38 AUDIO
    TITLE "0:"
    INDEX 01 00:40:62
  TRACK 39 AUDIO
    TITLE "5:cjc030_01566"
    INDEX 01 00:40:68
  TRACK 40 AUDIO
    TITLE "0:"
    INDEX 01 00:42:02
  TRACK 41 AUDIO
    TITLE "6:cjc030_01567"
    INDEX 01 00:42:16
  TRACK 42 AUDIO
    TITLE "0:"
    INDEX 01 00:46:06
  TRACK 43 AUDIO
    TITLE "3:cjc030_01568"
    INDEX 01 00:46:54
  TRACK 44 AUDIO
    TITLE "0:"
    INDEX 01 00:48:02
  TRACK 45 AUDIO
    TITLE "4:cjc030_01569"
    INDEX 01 00:48:12
  TRACK 46 AUDIO
    TITLE "0:"
    INDEX 01 00:50:37
  TRACK 47 AUDIO
    TITLE "5:cjc030_01570"
    INDEX 01 00:50:48
  TRACK 48 AUDIO
    TITLE "0:"
    INDEX 01 00:51:69
  TRACK 49 AUDIO
    TITLE "6:cjc030_01571"
    INDEX 01 00:52:06
  TRACK 50 AUDIO
    TITLE "0:"
    INDEX 01 00:56:16
  TRACK 51 AUDIO
    TITLE "3:cjc030_01572"
    INDEX 01 00:56:67
  TRACK 52 AUDIO
    TITLE "0:"
    INDEX 01 00:58:11
  TRACK 53 AUDIO
    TITLE "4:cjc030_01573"
    INDEX 01 00:58:20
  TRACK 54 AUDIO
    TITLE "0:"
    INDEX 01 01:00:21
  TRACK 55 AUDIO
    TITLE "5:cjc030_01574"
    INDEX 01 01:00:29
  TRACK 56 AUDIO
    TITLE "0:"
    INDEX 01 01:01:48
  TRACK 57 AUDIO
    TITLE "6:cjc030_01575"
    INDEX 01 01:01:60
  TRACK 58 AUDIO
    TITLE "0:"
    INDEX 01 01:07:14
  TRACK 59 AUDIO
    TITLE "3:cjc030_01576"
    INDEX 01 01:07:61
  TRACK 60 AUDIO
    TITLE "0:"
    INDEX 01 01:08:68
  TRACK 61 AUDIO
    TITLE "4:cjc030_01577"
    INDEX 01 01:09:01
  TRACK 62 AUDIO
    TITLE "0:"
    INDEX 01 01:11:11
  TRACK 63 AUDIO
    TITLE "5:cjc030_01578"
    INDEX 01 01:11:19
  TRACK 64 AUDIO
    TITLE "0:"
    INDEX 01 01:12:28
  TRACK 65 AUDIO
    TITLE "6:cjc030_01579"
    INDEX 01 01:12:40
  TRACK 66 AUDIO
    TITLE "0:"
    INDEX 01 01:14:47
